PathFileType	3	(X/Y/Z)	D:\Jess\PFP\Labelled\PA07\20250627\SRRun01.trc
DataRate	CameraRate	NumFrames	NumMarkers	Units	OrigDataRate	OrigDataStartFrame	OrigNumFrames
250.0	250.0	4	37	mm	250.0	37188	2501
Frame#	Time	C7			T10			CLAV			LSHO			RSHO			LASIS			RASIS			LPSIS			RPSIS			LILCR			RILCR			LGTR			LTHI			LLTHI			LLEP			LMEP			LPSH			LLSH			LDSH			LLMAL			LMMAL			LTOE			L5TH			LHEE			RGTR			RTHI			RLTHI			RLEP			RMEP			RPSH			RLSH			RDSH			RLMAL			RMMAL			RTOE			R5TH			RHEE			
		X1	Y1	Z1	X2	Y2	Z2	X3	Y3	Z3	X4	Y4	Z4	X5	Y5	Z5	X6	Y6	Z6	X7	Y7	Z7	X8	Y8	Z8	X9	Y9	Z9	X10	Y10	Z10	X11	Y11	Z11	X12	Y12	Z12	X13	Y13	Z13	X14	Y14	Z14	X15	Y15	Z15	X16	Y16	Z16	X17	Y17	Z17	X18	Y18	Z18	X19	Y19	Z19	X20	Y20	Z20	X21	Y21	Z21	X22	Y22	Z22	X23	Y23	Z23	X24	Y24	Z24	X25	Y25	Z25	X26	Y26	Z26	X27	Y27	Z27	X28	Y28	Z28	X29	Y29	Z29	X30	Y30	Z30	X31	Y31	Z31	X32	Y32	Z32	X33	Y33	Z33	X34	Y34	Z34	X35	Y35	Z35	X36	Y36	Z36	X37	Y37	Z37	

2189	148.748	825.8957885848424	1379.727017242457	-791.6450887717172	808.5278603979222	1132.661366258507	-734.8615686403392	809.1948977008759	1271.326177312813	-928.9261017556221	645.4852229687347	1368.296672644861	-831.0603813711775	977.2154230247838	1338.917301952776	-865.1645356478165	699.1121274987756	889.3076438574013	-873.9841294264713	910.7124342407423	899.0751490191524	-883.8606443899284	788.7517356156795	949.6391106562226	-720.7902060495202	830.6754404200236	950.1316317193748	-720.9990301105565	657.6325518299172	955.0207396932658	-828.3434624572204	965.5262622435309	975.1538769665225	-813.6843096413733	646.7725104174833	772.130819158564	-823.2281249666573	708.8855802453419	652.7837615836959	-963.443435376484	654.5911603384864	581.3185329339146	-901.0258848707591	673.977400548987	469.8975484020043	-918.3453090551537	nan	nan	nan	720.8947722204176	371.7831070786542	-883.4111257821871	664.1314604778826	408.248997378698	-751.8772380110199	714.4517643695287	325.0519864254508	-703.0477427522115	690.6356737442493	334.7040756985182	-583.5940239611947	nan	nan	nan	680.7142275205223	181.2863550470125	-595.093562887186	646.5698223744972	196.3019819093325	-558.498491106301	755.6471741369675	386.3213560242684	-533.8978806494582	986.4109931782949	790.8440092396149	-812.350465026292	894.8524988742179	647.053917000423	-910.9894164575247	941.6113513553091	574.3256204249691	-834.2088829774352	916.6511591620769	444.8424542119855	-813.1067068485077	nan	nan	nan	854.0128147703789	349.1695448697677	-831.0674918473054	902.5370380002905	260.6794857373044	-721.7209648362762	836.0709108271051	183.5166556635399	-721.6321241973358	864.400826234265	116.4010908113044	-635.9071683209793	nan	nan	nan	846.3597401629896	59.83563096995303	-766.0022968597301	887.8834677627752	39.34137732181511	-744.5355280503845	814.026154643292	107.4235943496061	-547.0799050772777	
2190	148.752	825.9417506990907	1381.954244851042	-791.5546845091349	809.265143863246	1134.445863537718	-734.9837102923369	808.1915672023746	1273.360135283087	-928.9102872655747	645.7837675902077	1370.431800733559	-829.5781269976012	976.6905822736786	1341.402900181475	-866.379219825345	699.1076684504511	891.629491225132	-873.9833476907838	910.7454241941319	900.3841150654617	-883.8820578340269	789.0617897194591	951.6694199376569	-720.7097322670784	830.9943649702916	952.0008636864501	-721.083388796151	657.5460474149347	957.5182241405655	-827.615625256829	965.4022206678309	976.8505579600165	-814.6169352340958	646.2485643941393	775.1820235192965	-824.0836666730867	708.5001047245307	657.4014940957034	-965.6451903653362	654.0301241070666	585.1461520008374	-904.6352924036569	673.5337151514873	473.8834808890732	-923.9362984190003	nan	nan	nan	720.715512915668	375.0171518509168	-891.0214621381514	663.3610094237251	408.2646579175806	-758.873762591205	714.2227798297918	324.2376065820368	-711.7460498268975	690.0019434421624	330.8563159509099	-592.1281861664671	nan	nan	nan	681.1855452397135	177.8265871874077	-607.9423061595354	646.8076305703549	191.5126159980655	-571.0472844685542	754.3951666276372	381.5292254395337	-540.6808065746235	986.157038652617	792.0450880970186	-811.0689039706999	894.1044623727136	646.6996028857368	-906.9275403161469	941.4078006476653	575.3320018322659	-828.7101325307628	917.1077050621636	445.9218541886252	-804.8942975016408	nan	nan	nan	854.4753689338544	349.9313585004533	-821.8564426051927	903.0356197654604	262.1070596615352	-712.1757230312189	836.6328951647714	184.8695764448051	-711.8165100099928	864.9170176400711	117.948238568708	-625.8008369394214	nan	nan	nan	846.4786626639893	59.49155630347135	-755.1833341033272	887.9416536788141	39.2823077169566	-733.4635969190014	814.6639519154679	110.0405285198534	-536.9869341841376	
2191	148.756	825.9527513953425	1384.337191924961	-791.4429374875951	810.036692184973	1136.367944050367	-735.1672351007585	807.1862891157436	1275.579946013966	-928.913074769769	646.0618755852282	1372.681641451092	-828.1182709408276	976.1445924948858	1344.108864960098	-867.553368059664	699.1263159306512	894.1269682335793	-874.1004405455053	910.8031652820663	901.8112140932709	-883.9794575537485	789.3645172960032	953.8523544291572	-720.7103644887085	831.3062451006101	954.0105213350711	-721.2487155736412	657.4689753503595	960.1427204925951	-827.0845792654417	965.2790499647551	978.6307177828809	-815.6598883238119	645.7250743385484	778.4640676204248	-825.0860729788269	708.1159606828643	662.1878573161855	-967.7408659054413	653.4761927330214	589.1679833396522	-908.0971254620786	673.0940075413885	478.050000632299	-929.2619254072812	nan	nan	nan	720.5123348603086	378.4050969591813	-898.4641689779372	662.6477813686591	408.267561161424	-765.695415255806	714.0288240216488	323.3668478108569	-720.4238412456643	689.4557104974191	326.8040956170859	-600.7008643675042	nan	nan	nan	681.6741206921847	174.3171904899676	-620.9729150038155	647.090485816581	186.6387899679529	-583.7936758683879	753.2788759547263	376.3894286356627	-547.5146498024869	985.8844537468505	793.3894478263809	-809.842360728678	893.2590510249032	646.5632105388008	-902.8523227381667	941.2094030315615	576.577817971933	-823.2231844985986	917.6119135049906	447.3595760469552	-796.6381111595672	nan	nan	nan	854.9910480890934	351.0325661103685	-812.617275777567	903.5966324422006	263.8422481195194	-702.6490807538293	837.2472411938371	186.4749288979707	-702.0932146911645	865.4650406005951	119.6791942976764	-615.8398651486409	nan	nan	nan	846.6044210870948	59.16781216759944	-744.4205263042282	888.0115859546663	39.25385648581233	-722.4304508480866	815.3331767261657	112.9327268126265	-527.0674727258196	
2192	148.76	825.92994469497	1386.858981162433	-791.3150036813739	810.8408410604084	1138.415684173022	-735.4092105984406	806.1861288539009	1277.971003720657	-928.9306730650289	646.317813340843	1375.031342331469	-826.6905831495449	975.5801122430419	1347.012069663772	-868.6868267854785	699.1583278879407	896.7846632654067	-874.3270181858998	910.8712377107472	903.3418530846243	-884.1571909472456	789.6583526669431	956.1819917000136	-720.792352111246	831.608723031494	956.156000693726	-721.4965245928946	657.398249588706	962.8803289318207	-826.7426247980146	965.1563515366868	980.4860903163317	-816.8133270741595	645.2006717068924	781.9605731731738	-826.2148257770831	707.7457888687376	667.117646946038	-969.7291064184456	652.9250634711387	593.3641024438751	-911.4151544091842	672.6550998791477	482.3661922198944	-934.310524217544	nan	nan	nan	720.2786319756491	381.9242173101098	-905.7272421048451	661.9958291754139	408.2468298726844	-772.340605239393	713.8677655794656	322.4378323889258	-729.080754959723	689.0029434743228	322.5587575608866	-609.3221872857837	nan	nan	nan	682.1663786817975	170.7807271476628	-634.179944127008	647.4081257346895	181.7079893842192	-596.7349189902313	752.3142052913613	370.9089871587374	-554.4201006198348	985.5906650399727	794.8748724094929	-808.6785880717423	892.3322034133537	646.6445361160103	-898.7777047037434	941.0292021098352	578.0636504404488	-817.7690606742317	918.1676677521253	449.1595629613996	-788.3626586167877	nan	nan	nan	855.5726468835986	352.4760172825978	-803.379779191314	904.2239106063561	265.8918198387901	-693.1615880919269	837.9213171856791	188.3367279310545	-692.4844072620955	866.0488054939418	121.6010295141311	-606.0433461228045	nan	nan	nan	846.7419649141991	58.8695307220228	-733.7247389957956	888.0974746455393	39.25678404219816	-711.4449027378422	816.0348886842074	116.1078619329318	-517.3445301256223	
